<svg width="1158" height="1157" viewBox="0 0 1158 1157" fill="none" xmlns="http://www.w3.org/2000/svg">
<g clip-path="url(#clip0_2373_18916)">
<rect x="11.5" y="9.5" width="1137" height="1137" rx="568.5" fill="#1F242C"/>
<path d="M1067.64 306.099C1075.09 301.938 1078.82 299.857 1082.47 300.953C1086.12 302.049 1088.04 305.758 1091.88 313.176C1131.02 388.724 1152.99 471.995 1156.19 557.021C1156.51 565.369 1156.67 569.543 1154.03 572.297C1151.4 575.05 1147.13 575.078 1138.59 575.134L1026.78 575.866C1018.37 575.921 1014.17 575.948 1011.54 573.461C1008.92 570.974 1008.71 566.646 1008.29 557.991C1005.37 497.865 989.851 439.02 962.734 385.277C958.83 377.541 956.878 373.672 957.938 370.213C958.997 366.754 962.667 364.705 970.007 360.606L1067.64 306.099Z" fill="#090A10"/>
<path d="M1067.64 306.099C1075.09 301.938 1078.82 299.857 1082.47 300.953C1086.12 302.049 1088.04 305.758 1091.88 313.176C1131.02 388.724 1152.99 471.995 1156.19 557.021C1156.51 565.369 1156.67 569.543 1154.03 572.297C1151.4 575.05 1147.13 575.078 1138.59 575.134L1026.78 575.866C1018.37 575.921 1014.17 575.948 1011.54 573.461C1008.92 570.974 1008.71 566.646 1008.29 557.991C1005.37 497.865 989.851 439.02 962.734 385.277C958.83 377.541 956.878 373.672 957.938 370.213C958.997 366.754 962.667 364.705 970.007 360.606L1067.64 306.099Z" fill="url(#paint0_linear_2373_18916)"/>
<path d="M1067.64 306.099C1075.09 301.938 1078.82 299.857 1082.47 300.953C1086.12 302.049 1088.04 305.758 1091.88 313.176C1131.02 388.724 1152.99 471.995 1156.19 557.021C1156.51 565.369 1156.67 569.543 1154.03 572.297C1151.4 575.05 1147.13 575.078 1138.59 575.134L1026.78 575.866C1018.37 575.921 1014.17 575.948 1011.54 573.461C1008.92 570.974 1008.71 566.646 1008.29 557.991C1005.37 497.865 989.851 439.02 962.734 385.277C958.83 377.541 956.878 373.672 957.938 370.213C958.997 366.754 962.667 364.705 970.007 360.606L1067.64 306.099Z" stroke="#5A5E6B" stroke-width="2"/>
<path d="M1068.57 428.287C1062.63 429.879 1057.56 433.767 1054.49 439.094C1051.41 444.421 1050.58 450.752 1052.17 456.694C1053.76 462.636 1057.65 467.702 1062.97 470.778C1068.3 473.854 1074.63 474.687 1080.57 473.095C1086.52 471.503 1091.58 467.616 1094.66 462.288C1097.73 456.961 1098.57 450.63 1096.98 444.688C1095.38 438.746 1091.5 433.68 1086.17 430.604C1080.84 427.529 1074.51 426.695 1068.57 428.287Z" fill="#1F242C"/>
<path d="M1046.17 434.291L1050.45 450.293L1051.41 450.036C1051.57 444.467 1053.72 439.14 1057.48 435.029C1061.24 430.918 1066.36 428.298 1071.89 427.649C1077.43 426.999 1083.01 428.362 1087.62 431.49C1092.23 434.617 1095.56 439.3 1097 444.681C1098.44 450.063 1097.9 455.783 1095.47 460.797C1093.04 465.811 1088.89 469.783 1083.77 471.987C1078.66 474.191 1072.92 474.479 1067.6 472.799C1062.29 471.119 1057.76 467.583 1054.84 462.838L1053.88 463.096L1058.17 479.098" stroke="#A6ABB5" stroke-width="2" stroke-linecap="round" stroke-linejoin="round"/>
<path d="M1036.56 436.863L1048.57 481.671" stroke="#A6ABB5" stroke-width="2" stroke-linecap="round" stroke-linejoin="round"/>
<path d="M20.0169 570.743C11.4804 570.62 7.21217 570.559 4.59982 567.785C1.98748 565.011 2.17779 560.838 2.55843 552.492C6.43395 467.52 29.0427 384.45 68.7643 309.234C72.6656 301.846 74.6163 298.153 78.2741 297.085C81.9319 296.018 85.6426 298.128 93.0639 302.348L190.228 357.601C197.535 361.756 201.189 363.834 202.221 367.302C203.253 370.769 201.271 374.622 197.307 382.328C169.778 435.839 153.801 494.542 150.415 554.623C149.927 563.275 149.683 567.601 147.036 570.068C144.389 572.534 140.186 572.473 131.78 572.352L20.0169 570.743Z" fill="#090A10"/>
<path d="M20.0169 570.743C11.4804 570.62 7.21217 570.559 4.59982 567.785C1.98748 565.011 2.17779 560.838 2.55843 552.492C6.43395 467.52 29.0427 384.45 68.7643 309.234C72.6656 301.846 74.6163 298.153 78.2741 297.085C81.9319 296.018 85.6426 298.128 93.0639 302.348L190.228 357.601C197.535 361.756 201.189 363.834 202.221 367.302C203.253 370.769 201.271 374.622 197.307 382.328C169.778 435.839 153.801 494.542 150.415 554.623C149.927 563.275 149.683 567.601 147.036 570.068C144.389 572.534 140.186 572.473 131.78 572.352L20.0169 570.743Z" fill="url(#paint1_linear_2373_18916)"/>
<path d="M20.0169 570.743C11.4804 570.62 7.21217 570.559 4.59982 567.785C1.98748 565.011 2.17779 560.838 2.55843 552.492C6.43395 467.52 29.0427 384.45 68.7643 309.234C72.6656 301.846 74.6163 298.153 78.2741 297.085C81.9319 296.018 85.6426 298.128 93.0639 302.348L190.228 357.601C197.535 361.756 201.189 363.834 202.221 367.302C203.253 370.769 201.271 374.622 197.307 382.328C169.778 435.839 153.801 494.542 150.415 554.623C149.927 563.275 149.683 567.601 147.036 570.068C144.389 572.534 140.186 572.473 131.78 572.352L20.0169 570.743Z" stroke="#5A5E6B" stroke-width="2"/>
<g clip-path="url(#clip1_2373_18916)">
<path d="M83.0845 441.231C79.9976 452.751 57.8848 458.484 57.8848 458.484C57.8848 458.484 76.8764 456.714 88.3968 459.801C99.9172 462.888 115.479 473.917 115.479 473.917C115.479 473.917 100.902 457.927 103.883 446.803C106.863 435.68 127.482 429.121 127.482 429.121C127.482 429.121 108.491 430.891 96.9703 427.804C85.45 424.717 69.8878 413.689 69.8878 413.689C69.8878 413.689 86.1713 429.71 83.0845 441.231Z" fill="#1F242C"/>
<path d="M57.8848 458.484C68.0285 456.627 78.4583 457.048 88.4194 459.717C98.3804 462.386 107.623 467.236 115.479 473.917" stroke="#A6ABB5" stroke-width="2" stroke-linecap="round" stroke-linejoin="round"/>
<path d="M69.8877 413.689C77.7437 420.37 86.9867 425.22 96.9477 427.889C106.909 430.558 117.339 430.979 127.482 429.122" stroke="#A6ABB5" stroke-width="2" stroke-linecap="round" stroke-linejoin="round"/>
<path d="M86.6826 466.201L98.6856 421.405" stroke="#A6ABB5" stroke-width="2" stroke-linecap="round" stroke-linejoin="round"/>
</g>
<path d="M571.153 1137.98C571.03 1146.52 570.969 1150.79 568.195 1153.4C565.421 1156.01 561.248 1155.82 552.902 1155.44C467.93 1151.57 384.86 1128.96 309.644 1089.24C302.256 1085.33 298.563 1083.38 297.495 1079.73C296.428 1076.07 298.538 1072.36 302.758 1064.94L358.011 967.772C362.166 960.464 364.244 956.81 367.712 955.778C371.179 954.746 375.032 956.728 382.738 960.693C436.249 988.222 494.952 1004.2 555.033 1007.59C563.685 1008.07 568.011 1008.32 570.478 1010.96C572.944 1013.61 572.883 1017.81 572.762 1026.22L571.153 1137.98Z" fill="#090A10"/>
<path d="M571.153 1137.98C571.03 1146.52 570.969 1150.79 568.195 1153.4C565.421 1156.01 561.248 1155.82 552.902 1155.44C467.93 1151.57 384.86 1128.96 309.644 1089.24C302.256 1085.33 298.563 1083.38 297.495 1079.73C296.428 1076.07 298.538 1072.36 302.758 1064.94L358.011 967.772C362.166 960.464 364.244 956.81 367.712 955.778C371.179 954.746 375.032 956.728 382.738 960.693C436.249 988.222 494.952 1004.2 555.033 1007.59C563.685 1008.07 568.011 1008.32 570.478 1010.96C572.944 1013.61 572.883 1017.81 572.762 1026.22L571.153 1137.98Z" fill="url(#paint2_linear_2373_18916)"/>
<path d="M571.153 1137.98C571.03 1146.52 570.969 1150.79 568.195 1153.4C565.421 1156.01 561.248 1155.82 552.902 1155.44C467.93 1151.57 384.86 1128.96 309.644 1089.24C302.256 1085.33 298.563 1083.38 297.495 1079.73C296.428 1076.07 298.538 1072.36 302.758 1064.94L358.011 967.772C362.166 960.464 364.244 956.81 367.712 955.778C371.179 954.746 375.032 956.728 382.738 960.693C436.249 988.222 494.952 1004.2 555.033 1007.59C563.685 1008.07 568.011 1008.32 570.478 1010.96C572.944 1013.61 572.883 1017.81 572.762 1026.22L571.153 1137.98Z" stroke="#5A5E6B" stroke-width="2"/>
<g clip-path="url(#clip2_2373_18916)">
<path d="M434.711 1036.78C439.588 1039.46 444.784 1041.55 450.192 1043C455.599 1044.45 461.145 1045.24 466.708 1045.36L453.781 1093.6L438.211 1087.71L421.784 1085.03L434.711 1036.78Z" fill="#1F242C"/>
<path d="M465.294 1101.83C457.438 1095.15 448.195 1090.3 438.234 1087.63C428.273 1084.96 417.843 1084.54 407.699 1086.4" stroke="#A6ABB5" stroke-width="2" stroke-linecap="round" stroke-linejoin="round"/>
<path d="M480.727 1044.24C470.583 1046.09 460.153 1045.67 450.192 1043C440.231 1040.33 430.988 1035.48 423.132 1028.8" stroke="#A6ABB5" stroke-width="2" stroke-linecap="round" stroke-linejoin="round"/>
<path d="M453.781 1093.6L466.642 1045.61" stroke="#A6ABB5" stroke-width="2" stroke-linecap="round" stroke-linejoin="round"/>
<path d="M421.784 1085.03L434.645 1037.03" stroke="#A6ABB5" stroke-width="2" stroke-linecap="round" stroke-linejoin="round"/>
<path d="M453.715 1093.85C448.838 1091.17 443.642 1089.08 438.234 1087.63C432.827 1086.18 427.281 1085.39 421.718 1085.28" stroke="#A6ABB5" stroke-width="2" stroke-linecap="round" stroke-linejoin="round"/>
</g>
<path d="M587.257 19.607C587.38 11.0705 587.441 6.80228 590.215 4.18993C592.989 1.57759 597.162 1.76791 605.508 2.14854C690.48 6.02407 773.55 28.6328 848.766 68.3544C856.154 72.2557 859.847 74.2064 860.915 77.8642C861.982 81.522 859.872 85.2327 855.652 92.6541L800.399 189.818C796.244 197.125 794.166 200.779 790.698 201.811C787.231 202.844 783.378 200.861 775.672 196.897C722.161 169.368 663.458 153.391 603.377 150.005C594.725 149.517 590.399 149.273 587.932 146.626C585.466 143.979 585.527 139.776 585.648 131.37L587.257 19.607Z" fill="#090A10"/>
<path d="M587.257 19.607C587.38 11.0705 587.441 6.80228 590.215 4.18993C592.989 1.57759 597.162 1.76791 605.508 2.14854C690.48 6.02407 773.55 28.6328 848.766 68.3544C856.154 72.2557 859.847 74.2064 860.915 77.8642C861.982 81.522 859.872 85.2327 855.652 92.6541L800.399 189.818C796.244 197.125 794.166 200.779 790.698 201.811C787.231 202.844 783.378 200.861 775.672 196.897C722.161 169.368 663.458 153.391 603.377 150.005C594.725 149.517 590.399 149.273 587.932 146.626C585.466 143.979 585.527 139.776 585.648 131.37L587.257 19.607Z" fill="url(#paint3_linear_2373_18916)"/>
<path d="M587.257 19.607C587.38 11.0705 587.441 6.80228 590.215 4.18993C592.989 1.57759 597.162 1.76791 605.508 2.14854C690.48 6.02407 773.55 28.6328 848.766 68.3544C856.154 72.2557 859.847 74.2064 860.915 77.8642C861.982 81.522 859.872 85.2327 855.652 92.6541L800.399 189.818C796.244 197.125 794.166 200.779 790.698 201.811C787.231 202.844 783.378 200.861 775.672 196.897C722.161 169.368 663.458 153.391 603.377 150.005C594.725 149.517 590.399 149.273 587.932 146.626C585.466 143.979 585.527 139.776 585.648 131.37L587.257 19.607Z" stroke="#5A5E6B" stroke-width="2"/>
<g clip-path="url(#clip3_2373_18916)">
<path d="M702.026 99.3002C734.483 80.5615 724.256 67.5329 724.256 67.5329L746.654 73.5344L740.652 95.9323C740.652 95.9323 734.483 80.5615 702.026 99.3002Z" fill="#1F242C"/>
<path d="M681.74 111.013L746.653 73.5351" stroke="#A6ABB5" stroke-width="2" stroke-linecap="round" stroke-linejoin="round"/>
<path d="M724.256 67.5332L746.654 73.5347L740.652 95.9326" stroke="#A6ABB5" stroke-width="2" stroke-linecap="round" stroke-linejoin="round"/>
<path d="M696.17 89.1582L707.882 109.443" stroke="#A6ABB5" stroke-width="2" stroke-linecap="round" stroke-linejoin="round"/>
</g>
<path d="M1059.58 865.442C1066.91 869.817 1070.58 872.004 1071.45 875.712C1072.33 879.421 1070.08 882.939 1065.58 889.977C1019.72 961.649 958.587 1022.3 886.557 1067.6C879.484 1072.04 875.948 1074.27 872.247 1073.36C868.545 1072.46 866.387 1068.77 862.07 1061.41L805.53 964.943C801.279 957.69 799.154 954.064 799.994 950.545C800.834 947.026 804.477 944.68 811.763 939.989C862.375 907.402 905.577 864.538 938.561 814.183C943.309 806.934 945.683 803.309 949.209 802.497C952.734 801.685 956.344 803.839 963.563 808.146L1059.58 865.442Z" fill="#090A10"/>
<path d="M1059.58 865.442C1066.91 869.817 1070.58 872.004 1071.45 875.712C1072.33 879.421 1070.08 882.939 1065.58 889.977C1019.72 961.649 958.587 1022.3 886.557 1067.6C879.484 1072.04 875.948 1074.27 872.247 1073.36C868.545 1072.46 866.387 1068.77 862.07 1061.41L805.53 964.943C801.279 957.69 799.154 954.064 799.994 950.545C800.834 947.026 804.477 944.68 811.763 939.989C862.375 907.402 905.577 864.538 938.561 814.183C943.309 806.934 945.683 803.309 949.209 802.497C952.734 801.685 956.344 803.839 963.563 808.146L1059.58 865.442Z" fill="url(#paint4_linear_2373_18916)"/>
<path d="M1059.58 865.442C1066.91 869.817 1070.58 872.004 1071.45 875.712C1072.33 879.421 1070.08 882.939 1065.58 889.977C1019.72 961.649 958.587 1022.3 886.557 1067.6C879.484 1072.04 875.948 1074.27 872.247 1073.36C868.545 1072.46 866.387 1068.77 862.07 1061.41L805.53 964.943C801.279 957.69 799.154 954.064 799.994 950.545C800.834 947.026 804.477 944.68 811.763 939.989C862.375 907.402 905.577 864.538 938.561 814.183C943.309 806.934 945.683 803.309 949.209 802.497C952.734 801.685 956.344 803.839 963.563 808.146L1059.58 865.442Z" stroke="#5A5E6B" stroke-width="2"/>
<g clip-path="url(#clip4_2373_18916)">
<path d="M944.858 908.599C942.994 906.735 940.465 905.688 937.829 905.688C935.193 905.688 932.664 906.735 930.8 908.599C928.936 910.463 927.889 912.992 927.889 915.628C927.889 918.264 928.936 920.793 930.8 922.657C932.664 924.521 935.193 925.568 937.829 925.568C940.465 925.568 942.994 924.521 944.858 922.657C946.722 920.793 947.769 918.264 947.769 915.628C947.769 912.992 946.722 910.463 944.858 908.599Z" fill="#1F242C"/>
<path d="M919.085 929.686C916.599 927.2 913.228 925.804 909.713 925.804C906.198 925.804 902.827 927.2 900.341 929.686C897.856 932.171 896.459 935.542 896.459 939.057C896.459 942.573 897.856 945.944 900.341 948.429" stroke="#A6ABB5" stroke-width="2" stroke-linecap="round" stroke-linejoin="round"/>
<path d="M944.858 908.599C942.994 906.735 940.465 905.688 937.829 905.688C935.193 905.688 932.664 906.735 930.8 908.599C928.936 910.463 927.889 912.992 927.889 915.628C927.889 918.264 928.936 920.793 930.8 922.657C932.664 924.521 935.193 925.568 937.829 925.568C940.465 925.568 942.994 924.521 944.858 922.657C946.722 920.793 947.769 918.264 947.769 915.628C947.769 912.992 946.722 910.463 944.858 908.599Z" stroke="#A6ABB5" stroke-width="2" stroke-linecap="round" stroke-linejoin="round"/>
<path d="M956.572 939.058C959.058 941.543 960.454 944.915 960.454 948.43C960.454 951.945 959.058 955.316 956.572 957.802C954.087 960.287 950.716 961.684 947.201 961.684C943.685 961.684 940.314 960.287 937.829 957.802" stroke="#A6ABB5" stroke-width="2" stroke-linecap="round" stroke-linejoin="round"/>
<path d="M956.572 939.058C949.543 932.029 940.171 932.029 930.8 922.657" stroke="#A6ABB5" stroke-width="2" stroke-linecap="round" stroke-linejoin="round"/>
<path d="M937.829 957.801C928.457 948.429 928.457 939.057 919.085 929.686" stroke="#A6ABB5" stroke-width="2" stroke-linecap="round" stroke-linejoin="round"/>
</g>
<path d="M90.7728 851.492C83.3186 855.653 79.5914 857.734 75.9421 856.638C72.2928 855.542 70.3712 851.833 66.528 844.415C27.3857 768.867 5.42342 685.596 2.21511 600.57C1.9001 592.222 1.74259 588.048 4.37664 585.294C7.01069 582.541 11.2793 582.513 19.8164 582.457L131.628 581.725C140.035 581.67 144.238 581.643 146.866 584.13C149.493 586.617 149.703 590.945 150.123 599.6C153.038 659.726 168.558 718.572 195.675 772.314C199.579 780.05 201.531 783.919 200.471 787.378C199.412 790.837 195.742 792.886 188.402 796.985L90.7728 851.492Z" fill="#090A10"/>
<path d="M90.7728 851.492C83.3186 855.653 79.5914 857.734 75.9421 856.638C72.2928 855.542 70.3712 851.833 66.528 844.415C27.3857 768.867 5.42342 685.596 2.21511 600.57C1.9001 592.222 1.74259 588.048 4.37664 585.294C7.01069 582.541 11.2793 582.513 19.8164 582.457L131.628 581.725C140.035 581.67 144.238 581.643 146.866 584.13C149.493 586.617 149.703 590.945 150.123 599.6C153.038 659.726 168.558 718.572 195.675 772.314C199.579 780.05 201.531 783.919 200.471 787.378C199.412 790.837 195.742 792.886 188.402 796.985L90.7728 851.492Z" fill="url(#paint5_linear_2373_18916)"/>
<path d="M90.7728 851.492C83.3186 855.653 79.5914 857.734 75.9421 856.638C72.2928 855.542 70.3712 851.833 66.528 844.415C27.3857 768.867 5.42342 685.596 2.21511 600.57C1.9001 592.222 1.74259 588.048 4.37664 585.294C7.01069 582.541 11.2793 582.513 19.8164 582.457L131.628 581.725C140.035 581.67 144.238 581.643 146.866 584.13C149.493 586.617 149.703 590.945 150.123 599.6C153.038 659.726 168.558 718.572 195.675 772.314C199.579 780.05 201.531 783.919 200.471 787.378C199.412 790.837 195.742 792.886 188.402 796.985L90.7728 851.492Z" stroke="#5A5E6B" stroke-width="2"/>
<g clip-path="url(#clip5_2373_18916)">
<path d="M78.2938 711.815C82.538 710.677 86.1566 707.901 88.3536 704.095C90.5505 700.29 91.1459 695.768 90.0086 691.524C88.8714 687.28 86.0948 683.661 82.2895 681.464C78.4843 679.267 73.9621 678.672 69.7179 679.809C65.4737 680.946 61.8551 683.723 59.6582 687.528C57.4612 691.333 56.8659 695.856 58.0031 700.1C59.1403 704.344 61.917 707.963 65.7222 710.16C69.5275 712.356 74.0496 712.952 78.2938 711.815Z" fill="#1F242C"/>
<path d="M85.1551 737.419C89.3993 736.282 93.0179 733.505 95.2149 729.7C97.4118 725.895 98.0072 721.373 96.87 717.128C95.7327 712.884 92.9561 709.266 89.1508 707.069C85.3456 704.872 80.8235 704.276 76.5793 705.414C72.3351 706.551 68.7165 709.327 66.5195 713.133C64.3225 716.938 63.7272 721.46 64.8644 725.704C66.0016 729.948 68.7783 733.567 72.5835 735.764C76.3888 737.961 80.9109 738.556 85.1551 737.419Z" fill="#1F242C"/>
<path d="M67.8352 711.187C66.0915 713.408 64.9446 716.039 64.5034 718.828C64.0621 721.617 64.3412 724.473 65.3142 727.124C66.2871 729.775 67.9215 732.134 70.0623 733.975C72.2031 735.817 74.7791 737.081 77.5458 737.647C80.3124 738.213 83.1779 738.063 85.8701 737.21C88.5623 736.357 90.9918 734.831 92.9279 732.775C94.864 730.719 96.2425 728.202 96.9324 725.464C97.6224 722.726 97.6009 719.856 96.87 717.128" stroke="#A6ABB5" stroke-width="2" stroke-linecap="round" stroke-linejoin="round"/>
<path d="M90.0088 691.524C89.2779 688.796 87.8619 686.301 85.8951 684.274C83.9284 682.248 81.4763 680.757 78.7717 679.945C76.067 679.133 73.1996 679.025 70.4417 679.633C67.6839 680.24 65.1271 681.543 63.0141 683.417C60.9012 685.29 59.3023 687.673 58.3692 690.338C57.4361 693.004 57.1999 695.863 57.6828 698.646C58.1658 701.428 59.352 704.041 61.1288 706.236C62.9056 708.431 65.2139 710.135 67.8347 711.187" stroke="#A6ABB5" stroke-width="2" stroke-linecap="round" stroke-linejoin="round"/>
<path d="M119.044 697.466L67.835 711.188" stroke="#A6ABB5" stroke-width="2" stroke-linecap="round" stroke-linejoin="round"/>
</g>
<path d="M851.901 1067.23C856.063 1074.68 858.144 1078.41 857.047 1082.06C855.951 1085.71 852.242 1087.63 844.825 1091.47C769.276 1130.61 686.005 1152.58 600.979 1155.78C592.631 1156.1 588.457 1156.26 585.704 1153.62C582.95 1150.99 582.922 1146.72 582.866 1138.18L582.135 1026.37C582.08 1017.97 582.052 1013.76 584.539 1011.13C587.026 1008.51 591.354 1008.3 600.01 1007.88C660.135 1004.96 718.981 989.442 772.723 962.325C780.459 958.421 784.328 956.469 787.787 957.529C791.247 958.588 793.296 962.258 797.394 969.598L851.901 1067.23Z" fill="#090A10"/>
<path d="M851.901 1067.23C856.063 1074.68 858.144 1078.41 857.047 1082.06C855.951 1085.71 852.242 1087.63 844.825 1091.47C769.276 1130.61 686.005 1152.58 600.979 1155.78C592.631 1156.1 588.457 1156.26 585.704 1153.62C582.95 1150.99 582.922 1146.72 582.866 1138.18L582.135 1026.37C582.08 1017.97 582.052 1013.76 584.539 1011.13C587.026 1008.51 591.354 1008.3 600.01 1007.88C660.135 1004.96 718.981 989.442 772.723 962.325C780.459 958.421 784.328 956.469 787.787 957.529C791.247 958.588 793.296 962.258 797.394 969.598L851.901 1067.23Z" fill="url(#paint6_linear_2373_18916)"/>
<path d="M851.901 1067.23C856.063 1074.68 858.144 1078.41 857.047 1082.06C855.951 1085.71 852.242 1087.63 844.825 1091.47C769.276 1130.61 686.005 1152.58 600.979 1155.78C592.631 1156.1 588.457 1156.26 585.704 1153.62C582.95 1150.99 582.922 1146.72 582.866 1138.18L582.135 1026.37C582.08 1017.97 582.052 1013.76 584.539 1011.13C587.026 1008.51 591.354 1008.3 600.01 1007.88C660.135 1004.96 718.981 989.442 772.723 962.325C780.459 958.421 784.328 956.469 787.787 957.529C791.247 958.588 793.296 962.258 797.394 969.598L851.901 1067.23Z" stroke="#5A5E6B" stroke-width="2"/>
<path d="M734.398 1060.04C733.716 1057.5 732.05 1055.33 729.766 1054.01C727.483 1052.69 724.77 1052.33 722.224 1053.01C719.677 1053.7 717.506 1055.36 716.188 1057.65C714.869 1059.93 714.512 1062.64 715.195 1065.19C715.877 1067.73 717.543 1069.91 719.826 1071.22C722.109 1072.54 724.823 1072.9 727.369 1072.22C729.916 1071.53 732.087 1069.87 733.405 1067.59C734.723 1065.3 735.08 1062.59 734.398 1060.04Z" fill="#1F242C"/>
<path d="M695.992 1070.33C695.309 1067.79 693.643 1065.62 691.36 1064.3C689.077 1062.98 686.364 1062.62 683.817 1063.3C681.271 1063.99 679.1 1065.65 677.781 1067.94C676.463 1070.22 676.106 1072.93 676.788 1075.48C677.471 1078.03 679.137 1080.2 681.42 1081.52C683.703 1082.83 686.416 1083.19 688.963 1082.51C691.509 1081.83 693.68 1080.16 694.999 1077.88C696.317 1075.59 696.674 1072.88 695.992 1070.33Z" fill="#1F242C"/>
<path d="M734.398 1060.04C733.716 1057.5 732.05 1055.33 729.766 1054.01C727.483 1052.69 724.77 1052.33 722.224 1053.01C719.677 1053.7 717.506 1055.36 716.188 1057.65C714.869 1059.93 714.512 1062.64 715.195 1065.19C715.877 1067.73 717.543 1069.91 719.826 1071.22C722.109 1072.54 724.823 1072.9 727.369 1072.22C729.916 1071.53 732.087 1069.87 733.405 1067.59C734.723 1065.3 735.08 1062.59 734.398 1060.04Z" stroke="#A6ABB5" stroke-width="2" stroke-linecap="round" stroke-linejoin="round"/>
<path d="M695.992 1070.33C695.309 1067.79 693.643 1065.62 691.36 1064.3C689.077 1062.98 686.364 1062.62 683.817 1063.3C681.271 1063.99 679.1 1065.65 677.781 1067.94C676.463 1070.22 676.106 1072.93 676.788 1075.48C677.471 1078.03 679.137 1080.2 681.42 1081.52C683.703 1082.83 686.416 1083.19 688.963 1082.51C691.509 1081.83 693.68 1080.16 694.999 1077.88C696.317 1075.59 696.674 1072.88 695.992 1070.33Z" stroke="#A6ABB5" stroke-width="2" stroke-linecap="round" stroke-linejoin="round"/>
<path d="M734.398 1060.04C735.835 1063.52 735.827 1067.39 734.376 1071.3C732.925 1075.2 730.08 1078.99 726.121 1082.3C722.163 1085.61 717.227 1088.33 711.799 1090.18C706.371 1092.03 700.638 1092.95 695.164 1092.85" stroke="#A6ABB5" stroke-width="2" stroke-linecap="round" stroke-linejoin="round"/>
<path d="M676.788 1075.48C675.351 1072.01 675.359 1068.13 676.81 1064.23C678.261 1060.32 681.106 1056.53 685.064 1053.22C689.023 1049.91 693.959 1047.2 699.387 1045.35C704.815 1043.5 710.548 1042.57 716.021 1042.67" stroke="#A6ABB5" stroke-width="2" stroke-linecap="round" stroke-linejoin="round"/>
<path d="M306.509 90.364C302.348 82.9098 300.267 79.1827 301.363 75.5334C302.459 71.8841 306.168 69.9624 313.586 66.1192C389.134 26.977 472.405 5.01467 557.431 1.80637C565.779 1.49136 569.953 1.33385 572.707 3.9679C575.46 6.60195 575.488 10.8705 575.544 19.4077L576.276 131.22C576.331 139.626 576.358 143.829 573.871 146.457C571.384 149.085 567.056 149.294 558.401 149.714C498.275 152.629 439.43 168.149 385.688 195.266C377.951 199.17 374.082 201.122 370.623 200.063C367.164 199.003 365.115 195.333 361.017 187.993L306.509 90.364Z" fill="#090A10"/>
<path d="M306.509 90.364C302.348 82.9098 300.267 79.1827 301.363 75.5334C302.459 71.8841 306.168 69.9624 313.586 66.1192C389.134 26.977 472.405 5.01467 557.431 1.80637C565.779 1.49136 569.953 1.33385 572.707 3.9679C575.46 6.60195 575.488 10.8705 575.544 19.4077L576.276 131.22C576.331 139.626 576.358 143.829 573.871 146.457C571.384 149.085 567.056 149.294 558.401 149.714C498.275 152.629 439.43 168.149 385.688 195.266C377.951 199.17 374.082 201.122 370.623 200.063C367.164 199.003 365.115 195.333 361.017 187.993L306.509 90.364Z" fill="url(#paint7_linear_2373_18916)"/>
<path d="M306.509 90.364C302.348 82.9098 300.267 79.1827 301.363 75.5334C302.459 71.8841 306.168 69.9624 313.586 66.1192C389.134 26.977 472.405 5.01467 557.431 1.80637C565.779 1.49136 569.953 1.33385 572.707 3.9679C575.46 6.60195 575.488 10.8705 575.544 19.4077L576.276 131.22C576.331 139.626 576.358 143.829 573.871 146.457C571.384 149.085 567.056 149.294 558.401 149.714C498.275 152.629 439.43 168.149 385.688 195.266C377.951 199.17 374.082 201.122 370.623 200.063C367.164 199.003 365.115 195.333 361.017 187.993L306.509 90.364Z" stroke="#5A5E6B" stroke-width="2"/>
<g clip-path="url(#clip6_2373_18916)">
<path d="M460.305 104.975C460.988 107.521 462.654 109.692 464.937 111.011C467.22 112.329 469.933 112.686 472.48 112.004C475.026 111.321 477.197 109.655 478.515 107.372C479.834 105.089 480.191 102.376 479.508 99.8292C478.826 97.2827 477.16 95.1115 474.877 93.7933C472.594 92.4752 469.881 92.118 467.334 92.8003C464.788 93.4826 462.616 95.1486 461.298 97.4318C459.98 99.7149 459.623 102.428 460.305 104.975Z" fill="#1F242C"/>
<path d="M420.352 71.0859C422.898 70.4036 425.611 70.7608 427.895 72.079C430.178 73.3972 431.844 75.5683 432.526 78.1148L440.244 106.92" stroke="#A6ABB5" stroke-width="2" stroke-linecap="round" stroke-linejoin="round"/>
<path d="M432.526 78.1144C431.844 75.5678 432.201 72.8546 433.519 70.5714C434.837 68.2883 437.008 66.6223 439.555 65.9399C442.101 65.2576 444.815 65.6148 447.098 66.933C449.381 68.2512 451.047 70.4223 451.729 72.9688L461.163 108.175C461.845 110.721 461.488 113.435 460.17 115.718C458.851 118.001 456.68 119.667 454.134 120.349" stroke="#A6ABB5" stroke-width="2" stroke-linecap="round" stroke-linejoin="round"/>
<path d="M460.305 104.975C460.988 107.521 462.654 109.692 464.937 111.011C467.22 112.329 469.933 112.686 472.48 112.004C475.026 111.321 477.197 109.655 478.515 107.372C479.834 105.089 480.191 102.376 479.508 99.8292C478.826 97.2827 477.16 95.1115 474.877 93.7933C472.594 92.4752 469.881 92.118 467.334 92.8003C464.788 93.4826 462.616 95.1486 461.298 97.4318C459.98 99.7149 459.623 102.428 460.305 104.975Z" stroke="#A6ABB5" stroke-width="2" stroke-linecap="round" stroke-linejoin="round"/>
</g>
<path d="M98.8279 292.148C91.4965 287.773 87.8309 285.586 86.9555 281.878C86.0801 278.169 88.3313 274.651 92.8337 267.613C138.689 195.941 199.823 135.285 271.853 89.9941C278.926 85.5471 282.462 83.3236 286.163 84.2282C289.865 85.1327 292.023 88.8154 296.34 96.1808L352.88 192.647C357.131 199.9 359.256 203.526 358.416 207.045C357.577 210.564 353.933 212.91 346.647 217.601C296.035 250.188 252.833 293.052 219.849 343.407C215.101 350.656 212.727 354.281 209.201 355.093C205.676 355.905 202.066 353.751 194.847 349.444L98.8279 292.148Z" fill="#090A10"/>
<path d="M98.8279 292.148C91.4965 287.773 87.8309 285.586 86.9555 281.878C86.0801 278.169 88.3313 274.651 92.8337 267.613C138.689 195.941 199.823 135.285 271.853 89.9941C278.926 85.5471 282.462 83.3236 286.163 84.2282C289.865 85.1327 292.023 88.8154 296.34 96.1808L352.88 192.647C357.131 199.9 359.256 203.526 358.416 207.045C357.577 210.564 353.933 212.91 346.647 217.601C296.035 250.188 252.833 293.052 219.849 343.407C215.101 350.656 212.727 354.281 209.201 355.093C205.676 355.905 202.066 353.751 194.847 349.444L98.8279 292.148Z" fill="url(#paint8_linear_2373_18916)"/>
<path d="M98.8279 292.148C91.4965 287.773 87.8309 285.586 86.9555 281.878C86.0801 278.169 88.3313 274.651 92.8337 267.613C138.689 195.941 199.823 135.285 271.853 89.9941C278.926 85.5471 282.462 83.3236 286.163 84.2282C289.865 85.1327 292.023 88.8154 296.34 96.1808L352.88 192.647C357.131 199.9 359.256 203.526 358.416 207.045C357.577 210.564 353.933 212.91 346.647 217.601C296.035 250.188 252.833 293.052 219.849 343.407C215.101 350.656 212.727 354.281 209.201 355.093C205.676 355.905 202.066 353.751 194.847 349.444L98.8279 292.148Z" stroke="#5A5E6B" stroke-width="2"/>
<g clip-path="url(#clip7_2373_18916)">
<path d="M199.495 220.875L199.495 234.933L215.896 251.334L215.896 237.276L229.953 237.276L229.953 223.218L244.011 223.218L244.011 209.161L258.069 209.161L241.668 192.76L227.61 192.76L227.61 206.818L213.553 206.818L213.553 220.875L199.495 220.875Z" fill="#1F242C"/>
<path d="M199.495 234.933L199.495 220.875L213.553 220.875L213.553 206.818L227.61 206.818L227.61 192.76L241.668 192.76" stroke="#A6ABB5" stroke-width="2" stroke-linecap="round" stroke-linejoin="round"/>
<path d="M215.895 251.334L215.895 237.276L229.953 237.276L229.953 223.218L244.011 223.218L244.011 209.16L258.069 209.16" stroke="#A6ABB5" stroke-width="2" stroke-linecap="round" stroke-linejoin="round"/>
</g>
<path d="M292.558 1059.17C288.184 1066.5 285.996 1070.17 282.288 1071.05C278.579 1071.92 275.061 1069.67 268.023 1065.17C196.351 1019.31 135.696 958.178 90.4044 886.148C85.9574 879.075 83.7339 875.539 84.6384 871.838C85.5429 868.136 89.2256 865.978 96.5911 861.661L193.057 805.121C200.31 800.87 203.936 798.745 207.455 799.585C210.974 800.425 213.32 804.068 218.011 811.354C250.598 861.966 293.462 905.168 343.817 938.152C351.066 942.9 354.691 945.274 355.503 948.8C356.316 952.325 354.162 955.935 349.854 963.154L292.558 1059.17Z" fill="#090A10"/>
<path d="M292.558 1059.17C288.184 1066.5 285.996 1070.17 282.288 1071.05C278.579 1071.92 275.061 1069.67 268.023 1065.17C196.351 1019.31 135.696 958.178 90.4044 886.148C85.9574 879.075 83.7339 875.539 84.6384 871.838C85.5429 868.136 89.2256 865.978 96.5911 861.661L193.057 805.121C200.31 800.87 203.936 798.745 207.455 799.585C210.974 800.425 213.32 804.068 218.011 811.354C250.598 861.966 293.462 905.168 343.817 938.152C351.066 942.9 354.691 945.274 355.503 948.8C356.316 952.325 354.162 955.935 349.854 963.154L292.558 1059.17Z" fill="url(#paint9_linear_2373_18916)"/>
<path d="M292.558 1059.17C288.184 1066.5 285.996 1070.17 282.288 1071.05C278.579 1071.92 275.061 1069.67 268.023 1065.17C196.351 1019.31 135.696 958.178 90.4044 886.148C85.9574 879.075 83.7339 875.539 84.6384 871.838C85.5429 868.136 89.2256 865.978 96.5911 861.661L193.057 805.121C200.31 800.87 203.936 798.745 207.455 799.585C210.974 800.425 213.32 804.068 218.011 811.354C250.598 861.966 293.462 905.168 343.817 938.152C351.066 942.9 354.691 945.274 355.503 948.8C356.316 952.325 354.162 955.935 349.854 963.154L292.558 1059.17Z" stroke="#5A5E6B" stroke-width="2"/>
<g clip-path="url(#clip8_2373_18916)">
<path d="M211.913 967.878C215.641 964.15 217.736 959.093 217.736 953.82C217.736 948.547 215.641 943.491 211.913 939.762C208.185 936.034 203.128 933.939 197.855 933.939C192.583 933.939 187.526 936.034 183.797 939.762" stroke="#A6ABB5" stroke-width="2" stroke-linecap="round" stroke-linejoin="round"/>
<path d="M240.029 939.763C243.758 936.034 245.852 930.977 245.852 925.705C245.852 920.432 243.758 915.375 240.029 911.647C236.301 907.919 231.244 905.824 225.972 905.824C220.699 905.824 215.642 907.919 211.914 911.647C208.186 915.375 206.091 920.432 206.091 925.705C206.091 930.977 208.186 936.034 211.914 939.763C215.642 943.491 220.699 945.585 225.972 945.585C231.244 945.585 236.301 943.491 240.029 939.763Z" fill="#1F242C"/>
<path d="M240.029 939.763C243.758 936.034 245.852 930.977 245.852 925.705C245.852 920.432 243.758 915.375 240.029 911.647C236.301 907.919 231.244 905.824 225.972 905.824C220.699 905.824 215.642 907.919 211.914 911.647C208.186 915.375 206.091 920.432 206.091 925.705C206.091 930.977 208.186 936.034 211.914 939.763C215.642 943.491 220.699 945.585 225.972 945.585C231.244 945.585 236.301 943.491 240.029 939.763Z" stroke="#A6ABB5" stroke-width="2" stroke-linecap="round" stroke-linejoin="round"/>
</g>
<path d="M865.852 98.4179C870.227 91.0866 872.414 87.4209 876.122 86.5455C879.831 85.6701 883.349 87.9213 890.387 92.4237C962.059 138.279 1022.71 199.413 1068.01 271.443C1072.45 278.516 1074.68 282.052 1073.77 285.753C1072.87 289.455 1069.18 291.613 1061.82 295.93L965.353 352.47C958.1 356.721 954.474 358.846 950.955 358.006C947.436 357.166 945.09 353.523 940.399 346.237C907.812 295.625 864.948 252.423 814.593 219.439C807.344 214.691 803.719 212.317 802.907 208.791C802.095 205.266 804.249 201.656 808.556 194.437L865.852 98.4179Z" fill="#090A10"/>
<path d="M865.852 98.4179C870.227 91.0866 872.414 87.4209 876.122 86.5455C879.831 85.6701 883.349 87.9213 890.387 92.4237C962.059 138.279 1022.71 199.413 1068.01 271.443C1072.45 278.516 1074.68 282.052 1073.77 285.753C1072.87 289.455 1069.18 291.613 1061.82 295.93L965.353 352.47C958.1 356.721 954.474 358.846 950.955 358.006C947.436 357.166 945.09 353.523 940.399 346.237C907.812 295.625 864.948 252.423 814.593 219.439C807.344 214.691 803.719 212.317 802.907 208.791C802.095 205.266 804.249 201.656 808.556 194.437L865.852 98.4179Z" fill="url(#paint10_linear_2373_18916)"/>
<path d="M865.852 98.4179C870.227 91.0866 872.414 87.4209 876.122 86.5455C879.831 85.6701 883.349 87.9213 890.387 92.4237C962.059 138.279 1022.71 199.413 1068.01 271.443C1072.45 278.516 1074.68 282.052 1073.77 285.753C1072.87 289.455 1069.18 291.613 1061.82 295.93L965.353 352.47C958.1 356.721 954.474 358.846 950.955 358.006C947.436 357.166 945.09 353.523 940.399 346.237C907.812 295.625 864.948 252.423 814.593 219.439C807.344 214.691 803.719 212.317 802.907 208.791C802.095 205.266 804.249 201.656 808.556 194.437L865.852 98.4179Z" stroke="#5A5E6B" stroke-width="2"/>
<g clip-path="url(#clip9_2373_18916)">
<path d="M925.41 224.857C910.415 239.852 922.286 256.097 930.096 262.345L944.154 262.345L933.611 251.801C926.113 244.304 930.487 237.744 933.611 235.401L955.869 213.142C960.555 200.959 951.574 201.818 946.497 203.771L925.41 224.857Z" fill="#1F242C"/>
<path d="M937.125 185.026C938.368 186.269 939.066 187.955 939.066 189.712C939.066 191.47 938.368 193.155 937.125 194.398L916.038 215.485" stroke="#A6ABB5" stroke-width="2" stroke-linecap="round" stroke-linejoin="round"/>
<path d="M937.125 194.399C938.367 193.156 940.053 192.458 941.811 192.458C943.568 192.458 945.254 193.156 946.496 194.399C947.739 195.642 948.437 197.327 948.437 199.085C948.437 200.842 947.739 202.528 946.496 203.771L925.41 224.857" stroke="#A6ABB5" stroke-width="2" stroke-linecap="round" stroke-linejoin="round"/>
<path d="M946.497 203.771C947.739 202.528 949.425 201.83 951.183 201.83C952.94 201.83 954.626 202.528 955.869 203.771C957.111 205.014 957.81 206.699 957.81 208.457C957.81 210.214 957.111 211.9 955.869 213.143L932.439 236.572C930.575 238.437 929.527 240.965 929.527 243.601C929.527 246.238 930.575 248.766 932.439 250.63L944.154 262.345M944.154 262.345L944.154 248.287M944.154 262.345L930.096 262.345" stroke="#A6ABB5" stroke-width="2" stroke-linecap="round" stroke-linejoin="round"/>
</g>
<path d="M1138.39 586.847C1146.93 586.97 1151.2 587.031 1153.81 589.805C1156.42 592.579 1156.23 596.752 1155.85 605.098C1151.98 690.07 1129.37 773.14 1089.65 848.356C1085.74 855.744 1083.79 859.437 1080.14 860.505C1076.48 861.572 1072.77 859.462 1065.35 855.242L968.182 799.989C960.875 795.834 957.221 793.756 956.189 790.288C955.156 786.821 957.139 782.968 961.103 775.262C988.632 721.751 1004.61 663.048 1008 602.967C1008.48 594.315 1008.73 589.989 1011.37 587.522C1014.02 585.056 1018.22 585.117 1026.63 585.238L1138.39 586.847Z" fill="#090A10"/>
<path d="M1138.39 586.847C1146.93 586.97 1151.2 587.031 1153.81 589.805C1156.42 592.579 1156.23 596.752 1155.85 605.098C1151.98 690.07 1129.37 773.14 1089.65 848.356C1085.74 855.744 1083.79 859.437 1080.14 860.505C1076.48 861.572 1072.77 859.462 1065.35 855.242L968.182 799.989C960.875 795.834 957.221 793.756 956.189 790.288C955.156 786.821 957.139 782.968 961.103 775.262C988.632 721.751 1004.61 663.048 1008 602.967C1008.48 594.315 1008.73 589.989 1011.37 587.522C1014.02 585.056 1018.22 585.117 1026.63 585.238L1138.39 586.847Z" fill="url(#paint11_linear_2373_18916)"/>
<path d="M1138.39 586.847C1146.93 586.97 1151.2 587.031 1153.81 589.805C1156.42 592.579 1156.23 596.752 1155.85 605.098C1151.98 690.07 1129.37 773.14 1089.65 848.356C1085.74 855.744 1083.79 859.437 1080.14 860.505C1076.48 861.572 1072.77 859.462 1065.35 855.242L968.182 799.989C960.875 795.834 957.221 793.756 956.189 790.288C955.156 786.821 957.139 782.968 961.103 775.262C988.632 721.751 1004.61 663.048 1008 602.967C1008.48 594.315 1008.73 589.989 1011.37 587.522C1014.02 585.056 1018.22 585.117 1026.63 585.238L1138.39 586.847Z" stroke="#5A5E6B" stroke-width="2"/>
<g clip-path="url(#clip10_2373_18916)">
<path d="M1046.93 732.755C1042.68 731.618 1039.25 728.168 1037.37 723.164C1036.95 722.041 1036.62 720.861 1036.37 719.638C1039.08 716.363 1047.29 710.905 1058.47 715.272C1061.02 715.954 1063.19 717.619 1064.5 719.902C1065.82 722.185 1066.18 724.897 1065.5 727.443C1064.81 729.989 1063.15 732.159 1060.87 733.477C1058.58 734.795 1055.87 735.152 1053.33 734.47L1046.93 732.755Z" fill="#1F242C"/>
<path d="M1099.04 691.849C1098.59 693.546 1097.47 694.993 1095.95 695.871C1094.43 696.75 1092.62 696.988 1090.93 696.533L1062.13 688.817" stroke="#A6ABB5" stroke-width="2" stroke-linecap="round" stroke-linejoin="round"/>
<path d="M1090.93 696.533C1092.62 696.988 1094.07 698.098 1094.95 699.62C1095.83 701.142 1096.07 702.95 1095.61 704.647C1095.16 706.345 1094.05 707.792 1092.52 708.67C1091 709.549 1089.19 709.787 1087.5 709.332L1058.7 701.616" stroke="#A6ABB5" stroke-width="2" stroke-linecap="round" stroke-linejoin="round"/>
<path d="M1087.5 709.332C1089.19 709.787 1090.64 710.897 1091.52 712.419C1092.4 713.941 1092.64 715.749 1092.18 717.446C1091.73 719.144 1090.62 720.591 1089.09 721.469C1087.57 722.348 1085.76 722.586 1084.07 722.131L1052.07 713.557C1047.83 712.42 1043.13 713.69 1039 717.086C1034.87 720.483 1031.66 725.728 1030.07 731.669" stroke="#A6ABB5" stroke-width="2" stroke-linecap="round" stroke-linejoin="round"/>
<path d="M1036.93 706.071C1035.34 712.011 1035.5 718.16 1037.37 723.164C1039.25 728.169 1042.68 731.619 1046.93 732.756L1053.33 734.47C1055.87 735.153 1058.58 734.795 1060.87 733.478C1063.15 732.16 1064.81 729.989 1065.5 727.443C1066.18 724.897 1065.82 722.185 1064.5 719.902C1063.19 717.62 1061.02 715.954 1058.47 715.272" stroke="#A6ABB5" stroke-width="2" stroke-linecap="round" stroke-linejoin="round"/>
</g>
<g filter="url(#filter0_i_2373_18916)">
<rect x="159.5" y="157.5" width="841" height="841" rx="420.5" fill="#090A10"/>
<rect x="159.5" y="157.5" width="841" height="841" rx="420.5" fill="url(#paint12_radial_2373_18916)" fill-opacity="0.6"/>
<rect x="160.5" y="158.5" width="839" height="839" rx="419.5" stroke="#715791" stroke-width="2"/>
</g>
<path d="M715.814 610.955C721.451 610.955 726.02 606.373 726.02 600.722C726.02 595.07 721.451 590.488 715.814 590.488C710.178 590.488 705.608 595.07 705.608 600.722C705.608 606.373 710.178 610.955 715.814 610.955Z" fill="#E5D6F0"/>
<path d="M725.51 427.37C731.991 508.008 673.409 586.498 594.824 605.225C568.339 611.979 539.814 614.025 513.381 604.662C452.605 585.73 409.638 501.817 451.992 447.376C477.099 413.913 539.916 406.135 555.123 452.544C561.195 468.866 555.123 489.639 537.773 495.575C525.271 500.845 509.247 494.449 509.043 479.662C507.972 471.015 520.423 462.163 526.291 470.094C528.639 473.778 525.577 478.945 521.392 478.485C525.067 478.331 527.261 473.726 524.964 470.964C522.974 468.303 518.994 469.429 516.596 471.271C511.238 475.261 513.177 483.499 517.667 487.337C531.19 497.417 549.765 480.634 546.448 465.642C539.457 422.713 486.488 429.723 466.025 458.428C441.94 491.43 458.422 539.629 486.131 565.059C510.829 589.261 547.009 595.401 580.28 589.414C660.397 577.083 719.693 508.213 725.459 427.37H725.51Z" fill="#EFF2F5"/>
<path d="M737.868 709.597C737.197 709.597 736.618 709.358 736.129 708.881C735.652 708.392 735.413 707.813 735.413 707.142C735.413 706.46 735.652 705.881 736.129 705.403C736.618 704.926 737.197 704.688 737.868 704.688C738.549 704.688 739.129 704.926 739.606 705.403C740.084 705.881 740.322 706.46 740.322 707.142C740.322 707.585 740.209 707.994 739.981 708.369C739.765 708.744 739.47 709.045 739.095 709.273C738.731 709.489 738.322 709.597 737.868 709.597Z" fill="#D9C1EB"/>
<path d="M724.977 709.597C724.307 709.597 723.727 709.358 723.238 708.881C722.761 708.392 722.522 707.813 722.522 707.142C722.522 706.46 722.761 705.881 723.238 705.403C723.727 704.926 724.307 704.688 724.977 704.688C725.659 704.688 726.238 704.926 726.716 705.403C727.193 705.881 727.432 706.46 727.432 707.142C727.432 707.585 727.318 707.994 727.091 708.369C726.875 708.744 726.579 709.045 726.204 709.273C725.841 709.489 725.432 709.597 724.977 709.597Z" fill="#D9C1EB"/>
<path d="M712.086 709.597C711.416 709.597 710.836 709.358 710.348 708.881C709.87 708.392 709.632 707.813 709.632 707.142C709.632 706.46 709.87 705.881 710.348 705.403C710.836 704.926 711.416 704.688 712.086 704.688C712.768 704.688 713.348 704.926 713.825 705.403C714.302 705.881 714.541 706.46 714.541 707.142C714.541 707.585 714.427 707.994 714.2 708.369C713.984 708.744 713.689 709.045 713.314 709.273C712.95 709.489 712.541 709.597 712.086 709.597Z" fill="#D9C1EB"/>
<path d="M684.903 692.977V709.341H681.869V683.159H684.818V687.267H685.091C685.704 685.926 686.659 684.852 687.954 684.046C689.261 683.227 690.875 682.818 692.795 682.818C694.557 682.818 696.102 683.188 697.432 683.926C698.773 684.654 699.812 685.727 700.551 687.148C701.301 688.568 701.676 690.313 701.676 692.381V709.341H698.642V692.568C698.642 690.421 698.04 688.722 696.835 687.472C695.642 686.222 694.04 685.597 692.028 685.597C690.653 685.597 689.432 685.892 688.363 686.483C687.295 687.074 686.449 687.926 685.824 689.04C685.21 690.142 684.903 691.455 684.903 692.977Z" fill="#D9C1EB"/>
<path d="M663.686 709.887C661.424 709.887 659.424 709.313 657.686 708.165C655.959 707.018 654.606 705.432 653.629 703.41C652.652 701.376 652.163 699.029 652.163 696.37C652.163 693.688 652.652 691.33 653.629 689.296C654.606 687.251 655.959 685.66 657.686 684.523C659.424 683.376 661.424 682.802 663.686 682.802C665.947 682.802 667.941 683.376 669.669 684.523C671.396 685.671 672.748 687.262 673.726 689.296C674.714 691.33 675.209 693.688 675.209 696.37C675.209 699.029 674.72 701.376 673.743 703.41C672.765 705.432 671.407 707.018 669.669 708.165C667.941 709.313 665.947 709.887 663.686 709.887ZM663.686 707.109C665.504 707.109 667.044 706.62 668.305 705.643C669.567 704.665 670.521 703.364 671.169 701.739C671.828 700.114 672.157 698.324 672.157 696.37C672.157 694.415 671.828 692.62 671.169 690.984C670.521 689.347 669.567 688.035 668.305 687.046C667.044 686.057 665.504 685.563 663.686 685.563C661.879 685.563 660.339 686.057 659.066 687.046C657.805 688.035 656.845 689.347 656.186 690.984C655.538 692.62 655.214 694.415 655.214 696.37C655.214 698.324 655.538 700.114 656.186 701.739C656.845 703.364 657.805 704.665 659.066 705.643C660.328 706.62 661.868 707.109 663.686 707.109Z" fill="#D9C1EB"/>
<path d="M635.326 709.887C633.065 709.887 631.065 709.313 629.326 708.165C627.599 707.018 626.247 705.432 625.27 703.41C624.292 701.376 623.804 699.029 623.804 696.37C623.804 693.688 624.292 691.33 625.27 689.296C626.247 687.251 627.599 685.66 629.326 684.523C631.065 683.376 633.065 682.802 635.326 682.802C637.588 682.802 639.582 683.376 641.309 684.523C643.037 685.671 644.389 687.262 645.366 689.296C646.355 691.33 646.849 693.688 646.849 696.37C646.849 699.029 646.361 701.376 645.383 703.41C644.406 705.432 643.048 707.018 641.309 708.165C639.582 709.313 637.588 709.887 635.326 709.887ZM635.326 707.109C637.145 707.109 638.684 706.62 639.946 705.643C641.207 704.665 642.162 703.364 642.809 701.739C643.468 700.114 643.798 698.324 643.798 696.37C643.798 694.415 643.468 692.62 642.809 690.984C642.162 689.347 641.207 688.035 639.946 687.046C638.684 686.057 637.145 685.563 635.326 685.563C633.52 685.563 631.98 686.057 630.707 687.046C629.446 688.035 628.486 689.347 627.826 690.984C627.179 692.62 626.855 694.415 626.855 696.37C626.855 698.324 627.179 700.114 627.826 701.739C628.486 703.364 629.446 704.665 630.707 705.643C631.968 706.62 633.508 707.109 635.326 707.109Z" fill="#D9C1EB"/>
<path d="M618.132 688.904L615.353 689.688C615.08 688.904 614.694 688.194 614.194 687.557C613.694 686.921 613.041 686.415 612.234 686.04C611.438 685.665 610.45 685.478 609.268 685.478C607.495 685.478 606.041 685.898 604.904 686.739C603.768 687.58 603.2 688.665 603.2 689.995C603.2 691.12 603.586 692.035 604.359 692.739C605.143 693.432 606.347 693.984 607.972 694.393L611.927 695.364C614.12 695.898 615.762 696.745 616.853 697.904C617.955 699.063 618.507 700.518 618.507 702.268C618.507 703.745 618.097 705.057 617.279 706.205C616.461 707.353 615.319 708.256 613.853 708.915C612.399 709.563 610.711 709.887 608.791 709.887C606.234 709.887 604.126 709.313 602.467 708.165C600.808 707.006 599.745 705.336 599.279 703.154L602.194 702.438C602.569 703.995 603.302 705.171 604.393 705.967C605.495 706.762 606.944 707.16 608.74 707.16C610.751 707.16 612.359 706.711 613.563 705.813C614.768 704.904 615.37 703.768 615.37 702.404C615.37 701.347 615.018 700.461 614.313 699.745C613.609 699.018 612.541 698.484 611.109 698.143L606.83 697.12C604.558 696.574 602.876 695.711 601.785 694.529C600.694 693.347 600.149 691.881 600.149 690.131C600.149 688.688 600.541 687.421 601.325 686.33C602.109 685.228 603.188 684.364 604.563 683.739C605.938 683.114 607.507 682.802 609.268 682.802C611.666 682.802 613.58 683.347 615.012 684.438C616.455 685.518 617.495 687.006 618.132 688.904Z" fill="#D9C1EB"/>
<path d="M568.201 719.705C566.417 719.705 564.855 719.472 563.514 719.006C562.173 718.552 561.042 717.927 560.122 717.131C559.201 716.336 558.486 715.444 557.974 714.455L560.463 712.819C560.838 713.478 561.338 714.126 561.963 714.762C562.599 715.398 563.423 715.927 564.434 716.347C565.457 716.768 566.713 716.978 568.201 716.978C570.52 716.978 572.389 716.398 573.809 715.239C575.241 714.08 575.957 712.279 575.957 709.836V703.938H575.684C575.332 704.734 574.826 705.529 574.167 706.324C573.508 707.109 572.645 707.762 571.576 708.285C570.52 708.807 569.207 709.069 567.639 709.069C565.548 709.069 563.69 708.552 562.065 707.518C560.451 706.484 559.179 705.006 558.247 703.086C557.326 701.154 556.866 698.853 556.866 696.182C556.866 693.535 557.315 691.205 558.213 689.194C559.122 687.182 560.389 685.614 562.014 684.489C563.639 683.364 565.531 682.802 567.69 682.802C569.292 682.802 570.622 683.086 571.679 683.654C572.736 684.211 573.582 684.904 574.218 685.734C574.866 686.563 575.372 687.37 575.736 688.154H576.042V683.16H579.008V710.023C579.008 712.239 578.537 714.063 577.593 715.495C576.65 716.927 575.366 717.984 573.741 718.665C572.116 719.359 570.27 719.705 568.201 719.705ZM567.997 706.29C569.679 706.29 571.116 705.887 572.309 705.08C573.503 704.262 574.417 703.092 575.054 701.569C575.69 700.046 576.008 698.234 576.008 696.131C576.008 694.086 575.696 692.273 575.071 690.694C574.446 689.103 573.537 687.853 572.343 686.944C571.162 686.023 569.713 685.563 567.997 685.563C566.247 685.563 564.77 686.035 563.565 686.978C562.361 687.921 561.451 689.194 560.838 690.796C560.224 692.387 559.917 694.165 559.917 696.131C559.917 698.131 560.23 699.898 560.855 701.432C561.48 702.955 562.395 704.148 563.599 705.012C564.804 705.864 566.27 706.29 567.997 706.29Z" fill="#D9C1EB"/>
<path d="M533.45 692.977V709.341H530.416V683.159H533.365V687.267H533.638C534.251 685.926 535.206 684.852 536.501 684.046C537.808 683.227 539.422 682.818 541.342 682.818C543.104 682.818 544.649 683.188 545.979 683.926C547.319 684.654 548.359 685.727 549.098 687.148C549.848 688.568 550.223 690.313 550.223 692.381V709.341H547.189V692.568C547.189 690.421 546.586 688.722 545.382 687.472C544.189 686.222 542.586 685.597 540.575 685.597C539.2 685.597 537.979 685.892 536.91 686.483C535.842 687.074 534.996 687.926 534.371 689.04C533.757 690.142 533.45 691.455 533.45 692.977Z" fill="#D9C1EB"/>
<path d="M519.341 709.341V683.16H522.392V709.341H519.341ZM520.892 678.66C520.267 678.66 519.733 678.449 519.29 678.029C518.847 677.597 518.625 677.08 518.625 676.478C518.625 675.875 518.847 675.364 519.29 674.944C519.733 674.512 520.267 674.296 520.892 674.296C521.517 674.296 522.051 674.512 522.494 674.944C522.937 675.364 523.159 675.875 523.159 676.478C523.159 677.08 522.937 677.597 522.494 678.029C522.051 678.449 521.517 678.66 520.892 678.66Z" fill="#D9C1EB"/>
<path d="M478.104 709.341V683.159H481.052V687.182H481.325C481.848 685.83 482.717 684.767 483.933 683.994C485.16 683.21 486.632 682.818 488.348 682.818C490.155 682.818 491.638 683.244 492.797 684.097C493.967 684.938 494.842 686.097 495.422 687.574H495.643C496.234 686.119 497.194 684.966 498.524 684.114C499.865 683.25 501.49 682.818 503.399 682.818C505.831 682.818 507.751 683.585 509.16 685.119C510.569 686.642 511.274 688.869 511.274 691.801V709.341H508.24V691.801C508.24 689.733 507.711 688.182 506.655 687.148C505.598 686.114 504.206 685.597 502.479 685.597C500.479 685.597 498.939 686.21 497.859 687.438C496.78 688.665 496.24 690.222 496.24 692.108V709.341H493.138V691.529C493.138 689.756 492.643 688.324 491.655 687.233C490.666 686.142 489.274 685.597 487.479 685.597C486.274 685.597 485.189 685.892 484.223 686.483C483.268 687.074 482.513 687.898 481.956 688.955C481.41 690 481.138 691.205 481.138 692.568V709.341H478.104Z" fill="#D9C1EB"/>
<path d="M459.92 709.887C457.659 709.887 455.659 709.313 453.92 708.165C452.193 707.018 450.841 705.432 449.863 703.41C448.886 701.376 448.397 699.029 448.397 696.37C448.397 693.688 448.886 691.33 449.863 689.296C450.841 687.251 452.193 685.66 453.92 684.523C455.659 683.376 457.659 682.802 459.92 682.802C462.182 682.802 464.176 683.376 465.903 684.523C467.63 685.671 468.983 687.262 469.96 689.296C470.949 691.33 471.443 693.688 471.443 696.37C471.443 699.029 470.954 701.376 469.977 703.41C469 705.432 467.642 707.018 465.903 708.165C464.176 709.313 462.182 709.887 459.92 709.887ZM459.92 707.109C461.738 707.109 463.278 706.62 464.54 705.643C465.801 704.665 466.755 703.364 467.403 701.739C468.062 700.114 468.392 698.324 468.392 696.37C468.392 694.415 468.062 692.62 467.403 690.984C466.755 689.347 465.801 688.035 464.54 687.046C463.278 686.057 461.738 685.563 459.92 685.563C458.113 685.563 456.574 686.057 455.301 687.046C454.04 688.035 453.079 689.347 452.42 690.984C451.772 692.62 451.449 694.415 451.449 696.37C451.449 698.324 451.772 700.114 452.42 701.739C453.079 703.364 454.04 704.665 455.301 705.643C456.562 706.62 458.102 707.109 459.92 707.109Z" fill="#D9C1EB"/>
<path d="M433.253 709.887C430.912 709.887 428.872 709.302 427.133 708.131C425.406 706.961 424.065 705.359 423.111 703.324C422.156 701.29 421.679 698.972 421.679 696.37C421.679 693.745 422.162 691.41 423.128 689.364C424.105 687.319 425.457 685.717 427.184 684.557C428.912 683.387 430.917 682.802 433.201 682.802C434.951 682.802 436.537 683.143 437.957 683.824C439.378 684.495 440.548 685.444 441.468 686.671C442.4 687.887 442.986 689.307 443.224 690.932H440.156C439.838 689.455 439.071 688.194 437.855 687.148C436.65 686.092 435.116 685.563 433.253 685.563C431.582 685.563 430.105 686.018 428.821 686.927C427.537 687.824 426.531 689.08 425.804 690.694C425.088 692.296 424.73 694.154 424.73 696.268C424.73 698.393 425.082 700.273 425.787 701.91C426.491 703.535 427.48 704.807 428.753 705.728C430.037 706.648 431.537 707.109 433.253 707.109C434.412 707.109 435.468 706.893 436.423 706.461C437.389 706.018 438.196 705.393 438.843 704.586C439.503 703.779 439.946 702.819 440.173 701.705H443.241C443.014 703.285 442.451 704.694 441.554 705.932C440.667 707.16 439.514 708.126 438.093 708.83C436.684 709.535 435.071 709.887 433.253 709.887Z" fill="#D9C1EB"/>
</g>
<defs>
<filter id="filter0_i_2373_18916" x="159.5" y="157.5" width="841" height="841" filterUnits="userSpaceOnUse" color-interpolation-filters="sRGB">
<feFlood flood-opacity="0" result="BackgroundImageFix"/>
<feBlend mode="normal" in="SourceGraphic" in2="BackgroundImageFix" result="shape"/>
<feColorMatrix in="SourceAlpha" type="matrix" values="0 0 0 0 0 0 0 0 0 0 0 0 0 0 0 0 0 0 127 0" result="hardAlpha"/>
<feMorphology radius="6" operator="erode" in="SourceAlpha" result="effect1_innerShadow_2373_18916"/>
<feOffset/>
<feGaussianBlur stdDeviation="32"/>
<feComposite in2="hardAlpha" operator="arithmetic" k2="-1" k3="1"/>
<feColorMatrix type="matrix" values="0 0 0 0 0.25098 0 0 0 0 0.129412 0 0 0 0 0.392157 0 0 0 1 0"/>
<feBlend mode="normal" in2="shape" result="effect1_innerShadow_2373_18916"/>
</filter>
<linearGradient id="paint0_linear_2373_18916" x1="1128.29" y1="457.087" x2="884.42" y2="509.928" gradientUnits="userSpaceOnUse">
<stop offset="0.11" stop-color="#090A10"/>
<stop offset="0.385" stop-color="#10141B"/>
</linearGradient>
<linearGradient id="paint1_linear_2373_18916" x1="42.9726" y1="409.701" x2="280.526" y2="485.853" gradientUnits="userSpaceOnUse">
<stop offset="0.11" stop-color="#090A10"/>
<stop offset="0.385" stop-color="#10141B"/>
</linearGradient>
<linearGradient id="paint2_linear_2373_18916" x1="410.111" y1="1115.03" x2="486.263" y2="877.474" gradientUnits="userSpaceOnUse">
<stop offset="0.11" stop-color="#090A10"/>
<stop offset="0.385" stop-color="#10141B"/>
</linearGradient>
<linearGradient id="paint3_linear_2373_18916" x1="748.299" y1="42.5628" x2="672.147" y2="280.116" gradientUnits="userSpaceOnUse">
<stop offset="0.11" stop-color="#090A10"/>
<stop offset="0.385" stop-color="#10141B"/>
</linearGradient>
<linearGradient id="paint4_linear_2373_18916" x1="959.15" y1="993.462" x2="791.454" y2="808.687" gradientUnits="userSpaceOnUse">
<stop offset="0.11" stop-color="#090A10"/>
<stop offset="0.385" stop-color="#10141B"/>
</linearGradient>
<linearGradient id="paint5_linear_2373_18916" x1="30.12" y1="700.504" x2="273.989" y2="647.663" gradientUnits="userSpaceOnUse">
<stop offset="0.11" stop-color="#090A10"/>
<stop offset="0.385" stop-color="#10141B"/>
</linearGradient>
<linearGradient id="paint6_linear_2373_18916" x1="700.914" y1="1127.88" x2="648.073" y2="884.011" gradientUnits="userSpaceOnUse">
<stop offset="0.11" stop-color="#090A10"/>
<stop offset="0.385" stop-color="#10141B"/>
</linearGradient>
<linearGradient id="paint7_linear_2373_18916" x1="457.497" y1="29.7112" x2="510.338" y2="273.58" gradientUnits="userSpaceOnUse">
<stop offset="0.11" stop-color="#090A10"/>
<stop offset="0.385" stop-color="#10141B"/>
</linearGradient>
<linearGradient id="paint8_linear_2373_18916" x1="199.26" y1="164.128" x2="366.956" y2="348.903" gradientUnits="userSpaceOnUse">
<stop offset="0.11" stop-color="#090A10"/>
<stop offset="0.385" stop-color="#10141B"/>
</linearGradient>
<linearGradient id="paint9_linear_2373_18916" x1="164.538" y1="958.741" x2="349.314" y2="791.045" gradientUnits="userSpaceOnUse">
<stop offset="0.11" stop-color="#090A10"/>
<stop offset="0.385" stop-color="#10141B"/>
</linearGradient>
<linearGradient id="paint10_linear_2373_18916" x1="993.872" y1="198.85" x2="809.097" y2="366.546" gradientUnits="userSpaceOnUse">
<stop offset="0.11" stop-color="#090A10"/>
<stop offset="0.385" stop-color="#10141B"/>
</linearGradient>
<linearGradient id="paint11_linear_2373_18916" x1="1115.44" y1="747.889" x2="877.884" y2="671.737" gradientUnits="userSpaceOnUse">
<stop offset="0.11" stop-color="#090A10"/>
<stop offset="0.385" stop-color="#10141B"/>
</linearGradient>
<radialGradient id="paint12_radial_2373_18916" cx="0" cy="0" r="1" gradientUnits="userSpaceOnUse" gradientTransform="translate(580 578) rotate(90) scale(420.5)">
<stop stop-color="#030001" stop-opacity="0"/>
<stop offset="1" stop-color="#030001"/>
</radialGradient>
<clipPath id="clip0_2373_18916">
<rect width="1158" height="1157" fill="white"/>
</clipPath>
<clipPath id="clip1_2373_18916">
<rect width="79.5018" height="79.5018" fill="white" transform="translate(43.999 471.911) rotate(-75)"/>
</clipPath>
<clipPath id="clip2_2373_18916">
<rect width="79.5018" height="79.5017" fill="white" transform="translate(472.321 1114) rotate(-165)"/>
</clipPath>
<clipPath id="clip3_2373_18916">
<rect width="79.5018" height="79.5017" fill="white" transform="translate(686.089 43.5889) rotate(15)"/>
</clipPath>
<clipPath id="clip4_2373_18916">
<rect width="79.5229" height="79.523" fill="white" transform="translate(989.374 939.058) rotate(135)"/>
</clipPath>
<clipPath id="clip5_2373_18916">
<rect width="79.5229" height="79.523" fill="white" transform="translate(62.123 753.882) rotate(-105)"/>
</clipPath>
<clipPath id="clip6_2373_18916">
<rect width="79.5229" height="79.5229" fill="white" transform="translate(404.119 61.7139) rotate(-15)"/>
</clipPath>
<clipPath id="clip7_2373_18916">
<rect width="79.5229" height="79.523" fill="white" transform="translate(169.036 218.532) rotate(-45)"/>
</clipPath>
<clipPath id="clip8_2373_18916">
<rect width="79.5229" height="79.523" fill="white" transform="translate(218.942 988.965) rotate(-135)"/>
</clipPath>
<clipPath id="clip9_2373_18916">
<rect width="79.5229" height="79.5229" fill="white" transform="translate(939.468 168.626) rotate(45)"/>
</clipPath>
<clipPath id="clip10_2373_18916">
<rect width="79.5018" height="79.5017" fill="white" transform="translate(1114.41 685.679) rotate(105)"/>
</clipPath>
</defs>
</svg>
